<svg xmlns="http://www.w3.org/2000/svg" width="31.5" height="42" viewBox="0 0 31.5 42">
  <path id="Path_5260" data-name="Path 5260" d="M-13.125-5.25a2.617,2.617,0,0,0,.205,1.036,2.6,2.6,0,0,0,.554.831,2.6,2.6,0,0,0,.831.554,2.617,2.617,0,0,0,1.036.205H14.438a1.261,1.261,0,0,1,.923.39,1.261,1.261,0,0,1,.39.923,1.261,1.261,0,0,1-.39.923,1.261,1.261,0,0,1-.923.39H-10.6a4.715,4.715,0,0,1-1.958-.42A5.484,5.484,0,0,1-14.2-1.548,5.484,5.484,0,0,1-15.33-3.189a4.715,4.715,0,0,1-.42-1.958V-36.853a4.715,4.715,0,0,1,.42-1.958A5.485,5.485,0,0,1-14.2-40.452a5.485,5.485,0,0,1,1.641-1.128A4.715,4.715,0,0,1-10.6-42H10.6a4.715,4.715,0,0,1,1.958.42A5.485,5.485,0,0,1,14.2-40.452a5.485,5.485,0,0,1,1.128,1.641,4.715,4.715,0,0,1,.42,1.958V-7.875a2.544,2.544,0,0,1-.205,1.025,2.668,2.668,0,0,1-.564.831,2.668,2.668,0,0,1-.831.564,2.544,2.544,0,0,1-1.025.205Zm0-2.625h26.25V-36.75a2.566,2.566,0,0,0-.205-1.015,2.636,2.636,0,0,0-.564-.841,2.636,2.636,0,0,0-.841-.564,2.566,2.566,0,0,0-1.015-.205h-21a2.544,2.544,0,0,0-1.025.205,2.668,2.668,0,0,0-.831.564,2.668,2.668,0,0,0-.564.831,2.544,2.544,0,0,0-.205,1.025Zm21-28.875a2.566,2.566,0,0,1,1.015.205,2.636,2.636,0,0,1,.841.564,2.636,2.636,0,0,1,.564.841,2.566,2.566,0,0,1,.205,1.015V-31.5a2.544,2.544,0,0,1-.205,1.025,2.668,2.668,0,0,1-.564.831,2.668,2.668,0,0,1-.831.564,2.544,2.544,0,0,1-1.025.205H-7.875a2.617,2.617,0,0,1-1.036-.205,2.6,2.6,0,0,1-.831-.554,2.6,2.6,0,0,1-.554-.831A2.617,2.617,0,0,1-10.5-31.5v-2.625a2.544,2.544,0,0,1,.205-1.025,2.668,2.668,0,0,1,.564-.831,2.668,2.668,0,0,1,.831-.564,2.544,2.544,0,0,1,1.025-.205ZM-7.875-31.5H7.875v-2.625H-7.875Z" transform="translate(15.75 42)" fill="#fff"/>
</svg>
