<svg xmlns="http://www.w3.org/2000/svg" width="19.8" height="17.6" viewBox="0 0 19.8 17.6">
  <path id="Icon_awesome-boxes" data-name="Icon awesome-boxes" d="M19.25,9.9H16.5v3.3l-1.1-.732-1.1.732V9.9H11.55a.552.552,0,0,0-.55.55v6.6a.552.552,0,0,0,.55.55h7.7a.552.552,0,0,0,.55-.55v-6.6A.552.552,0,0,0,19.25,9.9ZM6.05,7.7h7.7a.552.552,0,0,0,.55-.55V.55A.552.552,0,0,0,13.75,0H11V3.3L9.9,2.568,8.8,3.3V0H6.05A.552.552,0,0,0,5.5.55v6.6A.552.552,0,0,0,6.05,7.7Zm2.2,2.2H5.5v3.3l-1.1-.732L3.3,13.2V9.9H.55a.552.552,0,0,0-.55.55v6.6a.552.552,0,0,0,.55.55h7.7a.552.552,0,0,0,.55-.55v-6.6A.552.552,0,0,0,8.25,9.9Z" fill="#1e6f30"/>
</svg>
