<svg xmlns="http://www.w3.org/2000/svg" width="21.654" height="18" viewBox="0 0 21.654 18">
  <path id="Icon_awesome-store" data-name="Icon awesome-store" d="M21.166,4.17,18.884.527A1.125,1.125,0,0,0,17.932,0H3.729a1.125,1.125,0,0,0-.953.527L.494,4.17a3.136,3.136,0,0,0,2.067,4.8A3.654,3.654,0,0,0,3.043,9,3.471,3.471,0,0,0,5.638,7.833a3.474,3.474,0,0,0,5.189,0,3.474,3.474,0,0,0,5.189,0A3.483,3.483,0,0,0,18.61,9a3.614,3.614,0,0,0,.482-.032A3.133,3.133,0,0,0,21.166,4.17Zm-2.549,5.955a4.461,4.461,0,0,1-1.037-.134V13.5H4.08V9.991a4.657,4.657,0,0,1-1.037.134,4.744,4.744,0,0,1-.633-.042,4.421,4.421,0,0,1-.577-.127v6.919A1.124,1.124,0,0,0,2.959,18h15.75a1.124,1.124,0,0,0,1.125-1.125V9.956a3.589,3.589,0,0,1-.577.127A4.889,4.889,0,0,1,18.617,10.125Z" transform="translate(-0.004)" fill="#1e6f30"/>
</svg>
